<?xml version="1.0" encoding="utf-8"?>
<!-- Generator: Adobe Illustrator 16.0.0, SVG Export Plug-In . SVG Version: 6.00 Build 0)  -->
<!DOCTYPE svg PUBLIC "-//W3C//DTD SVG 1.1//EN" "http://www.w3.org/Graphics/SVG/1.1/DTD/svg11.dtd">
<svg version="1.1" id="Layer_1" xmlns="http://www.w3.org/2000/svg" xmlns:xlink="http://www.w3.org/1999/xlink" x="0px" y="0px"
	 width="34.895px" height="46.102px" viewBox="0 0 34.895 46.102" enable-background="new 0 0 34.895 46.102" xml:space="preserve">
<path fill="#3B6E67" d="M18.989,17.018C18.989,8.611,27.394,17.018,18.989,17.018C10.581,17.018,18.989,8.611,18.989,17.018
	S10.581,17.018,18.989,17.018C27.394,17.018,18.989,25.425,18.989,17.018z M18.989,17.018L18.989,17.018L18.989,17.018
	L18.989,17.018z"/>
<path fill="#FF5555" d="M4.528,29.162C2.422,26.639,0,21.787,0,17.448C0,7.826,7.828,0,17.448,0c9.619,0,17.445,7.827,17.445,17.447
	c0,4.34-2.201,8.312-4.523,11.714L17.448,46.101L4.528,29.162z"/>
<polygon fill="#FFFFFF" points="10.051,13.634 17.454,9.139 25.049,13.303 25.239,21.962 17.835,26.456 10.241,22.292 "/>
<polygon fill="none" stroke="#FF5555" stroke-miterlimit="10" points="11.544,14.429 17.492,10.818 23.594,14.163 23.746,21.12 
	17.799,24.73 11.698,21.385 "/>
</svg>
